<?xml version="1.0" encoding="UTF-8"?>
<svg version="1.1" xmlns="http://www.w3.org/2000/svg" width="180" height="180">
<path d="M0 0 C59.4 0 118.8 0 180 0 C180 59.4 180 118.8 180 180 C120.6 180 61.2 180 0 180 C0 120.6 0 61.2 0 0 Z " fill="#158D74" transform="translate(0,0)"/>
<path d="M0 0 C0.65597672 0.00141495 1.31195343 0.0028299 1.98780823 0.00428772 C4.05572327 0.00982594 6.12352467 0.02236623 8.19140625 0.03515625 C9.60481613 0.04017926 11.01822773 0.04474075 12.43164062 0.04882812 C15.87243193 0.05977499 19.31315797 0.07699587 22.75390625 0.09765625 C23.82281377 22.85350976 18.98979622 44.29206148 3.73046875 61.9375 C3.07820313 62.65035156 2.4259375 63.36320312 1.75390625 64.09765625 C1.16351563 64.77957031 0.573125 65.46148437 -0.03515625 66.1640625 C-10.33639262 77.36391736 -27.21431721 87.35014291 -42.55078125 88.08984375 C-43.11023438 88.09242187 -43.6696875 88.095 -44.24609375 88.09765625 C-43.52774709 89.64439417 -42.79576601 91.18480151 -42.05859375 92.72265625 C-41.65253906 93.58117187 -41.24648438 94.4396875 -40.828125 95.32421875 C-34.5614983 106.31015692 -23.05609381 113.28539889 -11.24609375 117.09765625 C-11.33890625 115.48890625 -11.33890625 115.48890625 -11.43359375 113.84765625 C-11.3032997 98.9680763 -3.71514082 84.78184745 6.48828125 74.30078125 C7.2359375 73.57375 7.98359375 72.84671875 8.75390625 72.09765625 C9.4396875 71.39125 10.12546875 70.68484375 10.83203125 69.95703125 C23.30759345 57.85111534 40.22685711 52.75312853 57.22265625 52.46875 C61.61087964 53.25028094 63.0789696 54.58995631 65.75390625 58.09765625 C66.65044318 60.88219449 66.48980544 63.27385703 65.75390625 66.09765625 C63.31640625 69.03515625 63.31640625 69.03515625 60.75390625 71.09765625 C60.42390625 71.42765625 60.09390625 71.75765625 59.75390625 72.09765625 C57.85936253 72.20643388 55.96298871 72.28359798 54.06640625 72.34765625 C39.73981162 73.38558736 29.33596854 79.11082867 19.56640625 89.28515625 C12.28356781 97.86175242 8.89637829 106.98810056 7.75390625 118.09765625 C24.73224879 115.60834352 24.73224879 115.60834352 40.06640625 108.28515625 C42.95419002 106.34214125 43.51519411 106.08897581 47.19140625 106.22265625 C49.75390625 107.09765625 49.75390625 107.09765625 50.75390625 108.09765625 C51.19140625 110.22265625 51.19140625 110.22265625 50.75390625 113.09765625 C42.34001212 125.25105888 27.15156937 134.15935765 12.75390625 137.09765625 C10.75405605 137.12213422 8.75371284 137.12546997 6.75390625 137.09765625 C6.7696167 137.86956299 6.78532715 138.64146973 6.80151367 139.43676758 C6.86380232 142.92782287 6.90287798 146.41876134 6.94140625 149.91015625 C6.96654297 151.12509766 6.99167969 152.34003906 7.01757812 153.59179688 C7.02724609 154.75517578 7.03691406 155.91855469 7.046875 157.1171875 C7.06258545 158.19073486 7.0782959 159.26428223 7.09448242 160.37036133 C6.75390625 163.09765625 6.75390625 163.09765625 5.3605957 164.90893555 C2.65005451 166.91434887 0.77030486 167.30385529 -2.55859375 167.41015625 C-3.69748047 167.46623047 -3.69748047 167.46623047 -4.859375 167.5234375 C-8.26388967 166.91608546 -9.80733291 165.52166551 -12.24609375 163.09765625 C-12.8137207 160.16503906 -12.8137207 160.16503906 -12.734375 156.80078125 C-12.71826172 155.59550781 -12.70214844 154.39023438 -12.68554688 153.1484375 C-12.64365234 151.89417969 -12.60175781 150.63992187 -12.55859375 149.34765625 C-12.53603516 148.07792969 -12.51347656 146.80820313 -12.49023438 145.5 C-12.43130014 142.36469852 -12.34906454 139.2317703 -12.24609375 136.09765625 C-13.2825 135.97648438 -14.31890625 135.8553125 -15.38671875 135.73046875 C-32.20595485 132.97265878 -46.1443227 121.43593083 -56.3828125 108.37109375 C-61.07110689 101.47594496 -63.78509951 94.02445419 -66.24609375 86.09765625 C-66.79910156 84.42123047 -66.79910156 84.42123047 -67.36328125 82.7109375 C-68.37897435 78.55378654 -68.58991689 74.79510388 -68.55859375 70.53515625 C-68.5544043 69.75011719 -68.55021484 68.96507813 -68.54589844 68.15625 C-68.18218321 49.08828559 -60.97367342 33.15426194 -48.05859375 19.34765625 C-34.70116983 6.75417512 -18.44486541 -0.07916251 0 0 Z " fill="#FBFDFC" transform="translate(88.24609375,7.90234375)"/>
<path d="M0 0 C-3.05393809 16.65784415 -11.17065621 30.93193378 -25 41 C-32.97993662 45.81851161 -42.52976018 51.27520355 -52 51 C-53.26150647 38.83347089 -48.59700677 27.91849181 -41.15625 18.46484375 C-30.07434228 5.79693837 -16.83130826 -0.54785452 0 0 Z " fill="#19917B" transform="translate(91,27)"/>
<path d="M0 0 C0.60692702 11.70020418 -0.2162442 19.85882116 -7.9375 28.9375 C-10.69038979 31.953091 -13.37727609 34.09613027 -17 36 C-17.66 36 -18.32 36 -19 36 C-21.3670784 28.89876481 -21.12463656 20.37798242 -18 13.5625 C-14.65343063 7.7915693 -10.08044473 3.54022237 -4.125 0.5625 C-2 0 -2 0 0 0 Z " fill="#F8FBFA" transform="translate(132,24)"/>
<path d="M0 0 C6.81030624 -0.56752552 11.53915348 1.10847023 16.8046875 5.5078125 C21.0967226 9.92306392 21.97249845 13.93590908 22 20 C13.49936398 18.8587109 7.97657163 15.66347277 2.5625 9 C0.95591815 5.91536284 0.32818909 3.4459854 0 0 Z " fill="#F9FCFB" transform="translate(125,92)"/>
<path d="M0 0 C-0.95404749 8.01399888 -3.91110686 12.45524112 -10.00390625 17.51953125 C-13.35530131 20.00520391 -15.84878106 21 -20 21 C-19.69563298 14.15174194 -18.67737141 9.47046048 -13.47265625 4.55859375 C-8.66767805 0.4350061 -6.28962264 -0.11647449 0 0 Z " fill="#F6FAF9" transform="translate(152,35)"/>
<path d="M0 0 C4.91976421 2.2455742 7.89605284 4.84928073 10.9375 9.31640625 C10.9375 10.30640625 10.9375 11.29640625 10.9375 12.31640625 C3.07283925 12.73606206 -1.7225973 12.21098859 -7.875 6.87890625 C-9.89429703 4.51344401 -10.72594422 3.3454083 -11.0625 0.31640625 C-7.47029694 -1.47969528 -3.7803969 -1.25297246 0 0 Z " fill="#F4F9F8" transform="translate(152.0625,85.68359375)"/>
<path d="M0 0 C3.63 0 7.26 0 11 0 C10.34 1.32 9.68 2.64 9 4 C9 3.34 9 2.68 9 2 C6.03 1.67 3.06 1.34 0 1 C0 0.67 0 0.34 0 0 Z " fill="#48A795" transform="translate(80,27)"/>
</svg>
